<?xml version="1.0" encoding="utf-8"?>
<svg viewBox="0 0 500 500" xmlns="http://www.w3.org/2000/svg">
  <defs>
    <clipPath id="freepik--clip-path--inject-34">
      <path d="M274.81,161.53a64.89,64.89,0,0,0-5.54,45.79c6.42,26,24.21,56,24.21,56L315.64,256s-1.75-43.15-11.08-63.57S278,161,274.81,161.53Z" style="fill:#2ECC71;stroke:#263238;stroke-linecap:round;stroke-linejoin:round"/>
    </clipPath>
    <clipPath id="freepik--clip-path-2--inject-34">
      <path d="M220.92,234s4.26,1.28,15.69-5.17l3.14,12.35s-8.11,3.5-20.1,1.85Z" style="fill:#fff;stroke:#263238;stroke-linecap:round;stroke-linejoin:round"/>
    </clipPath>
    <clipPath id="freepik--clip-path-3--inject-34">
      <path d="M235.79,186.1s-7.48,13.74-6.06,25.26,6.06,23,7.27,28.08-2.63,17-1.82,20.6,17.78,5.46,32.33,6.07,21-3.24,21.82-7.28,1.21-3.43.6-10.91-7.27-47.07-11.31-54.75S255.39,178.83,252.15,178,240,178.43,235.79,186.1Z" style="fill:#fff;stroke:#263238;stroke-linecap:round;stroke-linejoin:round"/>
    </clipPath>
    <clipPath id="freepik--clip-path-4--inject-34">
      <path d="M229.84,174.7s7.4,20.31,9.52,19.67,10.58-15,11-17.77-2.54-9.31-2.54-9.31a56.07,56.07,0,0,0-11.64,4.23C229.62,174.7,229.84,174.7,229.84,174.7Z" style="fill:#fff;stroke:#263238;stroke-linecap:round;stroke-linejoin:round"/>
    </clipPath>
    <clipPath id="freepik--clip-path-5--inject-34">
      <path d="M259,245.09s-8.89-6.86-11.51-8.68-8.69.6-10.71.6-4.65,2-4.24,3.44a5.13,5.13,0,0,0,2,2.42s-1.42,2.43-.21,4.25a6.07,6.07,0,0,1,1.22,3,9,9,0,0,0,2.22,3.23c1.21.81,3.84,1.21,7.07,1.21s8.89-2.22,8.89-2.22l5.66-.2Z" style="fill:#fff;stroke:#263238;stroke-linecap:round;stroke-linejoin:round"/>
    </clipPath>
    <clipPath id="freepik--clip-path-6--inject-34">
      <path d="M264.88,188.33s-7.27,6.66-4.44,15.55S275,221.05,278,225.09a65.31,65.31,0,0,0,7.28,7.88s-9.1,4.45-15.56,7.28a81.06,81.06,0,0,1-11.31,4l.2,7.67s22.22,1,32.52-3,17.78-9.09,17.78-15.15S296,216.41,289.12,205.5s-11.92-16.57-18.78-17.58" style="fill:#fff;stroke:#263238;stroke-linecap:round;stroke-linejoin:round"/>
    </clipPath>
    <clipPath id="freepik--clip-path-7--inject-34">
      <path d="M227.59,142.38a59.72,59.72,0,0,0-2.07,6c-.49,2.06-3.1,5.79-4.63,6.74s-5.1,2.28-3.53,4a17.55,17.55,0,0,0,4.71,3.06s-1.23,7.1-.45,11.19,3.66,4.78,6.27,4.74,12.46-1.21,15.79-5.21,8.69-16.65,6.06-24.87S232.25,134.57,227.59,142.38Z" style="fill:#fff;stroke:#263238;stroke-linecap:round;stroke-linejoin:round"/>
    </clipPath>
    <clipPath id="freepik--clip-path-8--inject-34">
      <path d="M223.48,145.22s16.33,4.48,16.68,7.61-2.53,9.73-1,16.38,10.59,8.58,18.15,6,13-16.5,12-28S256.6,129,247.44,127.27,224.37,132.17,223.48,145.22Z" style="fill:#2ECC71;stroke:#263238;stroke-linecap:round;stroke-linejoin:round"/>
    </clipPath>
  </defs>
  <g id="freepik--background-simple--inject-34">
    <path d="M434.75,386.27H74.07S59.73,391,51.82,353.71s32.8-47.22,42.48-79.38-32.55-25.39-29-69.4S126.85,160.07,155,166s24.63-14.39,57.18-48.25S294,87.28,318.62,113.52s16.72,53.32,47.51,53.32,58.94,5.93,77.41,62.63-15.29,82.62-14.68,108.18A275.52,275.52,0,0,0,434.75,386.27Z" style="fill:#2ECC71"/>
    <path d="M434.75,386.27H74.07S59.73,391,51.82,353.71s32.8-47.22,42.48-79.38-32.55-25.39-29-69.4S126.85,160.07,155,166s24.63-14.39,57.18-48.25S294,87.28,318.62,113.52s16.72,53.32,47.51,53.32,58.94,5.93,77.41,62.63-15.29,82.62-14.68,108.18A275.52,275.52,0,0,0,434.75,386.27Z" style="fill:#fff;opacity:0.7000000000000001"/>
  </g>
  <g id="freepik--Chart--inject-34">
    <path d="M138.23,152.63V386.26h-8.8v-244Zm123.53,97.26-3.17-3.4V386.26h8.8V247.91Zm-54.84-58.82V386.26h8.81V200.51Zm-25.83-1.29V386.26h8.8V187Zm-25.83-17.15V386.26h8.8V183Zm77.5,46.15V386.26h8.8v-158Zm155,58.78v108.7h8.8V285.63Zm-25.83-23.69V386.26h8.8V261.94Zm-77.49-11.94V386.26h8.8V238.83Zm51.66-11.76V386.26h8.8v-148Zm-25.83,2.68V386.26h8.8V229.76Z" style="opacity:0.07"/>
    <polyline points="416.62 303.63 331.04 225.55 257.73 254.28 200.04 183.68 172.28 192.62 127.02 138.07" style="fill:none;stroke:#2ECC71;stroke-linecap:round;stroke-linejoin:round;stroke-width:3px"/>
    <polygon points="137.03 133.74 117.4 126.47 120.92 147.11 137.03 133.74" style="fill:#2ECC71"/>
  </g>
  <g id="freepik--Gears--inject-34" transform="matrix(1, 0, 0, 1, 5.359057, -8.038586)">
    <path d="M160.57,355.35l3.62-1.65-.77-4.34-4-.31a17.59,17.59,0,0,0-2-3.79l2.06-3.47-3.12-3.12-3.5,2.08a17.47,17.47,0,0,0-6.69-2.73l-1-4h-4.41l-1,4a17.68,17.68,0,0,0-4,1.26l-3.16-2.73L129,339.1l1.49,3.91A17.25,17.25,0,0,0,128,346.3l-4.16-.43L122.29,350l3.44,2.34a17.61,17.61,0,0,0-.25,2.92c0,.42,0,.83,0,1.24l-3.62,2,1.15,4.27,4.09-.06a17.41,17.41,0,0,0,2.25,3.58L127.63,370l3.38,2.84,3.28-2.35a17.61,17.61,0,0,0,3.94,1.67l.66,4,4.39.39,1.33-3.75a17.41,17.41,0,0,0,4.23-.91l2.77,2.82,3.82-2.21-1-3.8a17.8,17.8,0,0,0,2.93-3.2l3.88.72,1.87-4-3-2.52A17.82,17.82,0,0,0,160.57,355.35Zm-6.53-.08a11,11,0,1,1-11-11A11,11,0,0,1,154,355.27Z" style="fill:#fff"/>
    <path d="M133.72,314.63l3.62-1.65-.77-4.35-4-.31a17.29,17.29,0,0,0-2-3.78l2.06-3.48-3.12-3.12L126,300a17.5,17.5,0,0,0-6.69-2.73l-1-4H113.9l-1,4a17.25,17.25,0,0,0-4,1.26l-3.16-2.73-3.61,2.53,1.49,3.9a17.71,17.71,0,0,0-2.54,3.29L97,305.14l-1.51,4.15,3.44,2.33a17.64,17.64,0,0,0-.25,2.93c0,.42,0,.83.05,1.24l-3.62,2,1.14,4.26,4.1-.05a17.62,17.62,0,0,0,2.25,3.57l-1.77,3.68,3.38,2.83,3.28-2.34a17.13,17.13,0,0,0,3.94,1.66l.66,4,4.39.38,1.33-3.74a17.42,17.42,0,0,0,4.23-.92l2.77,2.82,3.82-2.21-1.05-3.8a17.44,17.44,0,0,0,2.94-3.19l3.88.71,1.87-4-3.05-2.51A17.88,17.88,0,0,0,133.72,314.63Zm-6.53-.08a11,11,0,1,1-11-11A11,11,0,0,1,127.19,314.55Z" style="fill:#fff"/>
    <path d="M190.33,244.61l8.77-4-1.86-10.54-9.68-.75a42,42,0,0,0-4.84-9.17l5-8.43-7.57-7.57-8.5,5a42.38,42.38,0,0,0-16.22-6.62l-2.46-9.7h-10.7l-2.46,9.77a41.67,41.67,0,0,0-9.62,3.05l-7.65-6.62-8.77,6.14,3.62,9.46a42.64,42.64,0,0,0-6.15,8l-10.07-1-3.66,10,8.34,5.66a42.63,42.63,0,0,0-.61,7.11c0,1,0,2,.12,3l-8.77,4.9,2.77,10.34,9.93-.13a42.21,42.21,0,0,0,5.45,8.67l-4.28,8.91,8.19,6.88,8-5.69a42.19,42.19,0,0,0,9.57,4l1.59,9.58,10.66.94,3.21-9.08a42.05,42.05,0,0,0,10.26-2.22l6.73,6.84,9.26-5.35-2.54-9.22a43,43,0,0,0,7.12-7.76l9.41,1.74,4.52-9.7L189,255A43,43,0,0,0,190.33,244.61Zm-15.83-.18a26.72,26.72,0,1,1-26.72-26.72A26.71,26.71,0,0,1,174.5,244.43Z" style="fill:#fff"/>
    <path d="M411.18,212.8l3.62-1.65L414,206.8l-4-.31a17.71,17.71,0,0,0-2-3.78l2.05-3.47L407,196.12l-3.5,2.08a17.31,17.31,0,0,0-6.69-2.73l-1-4h-4.41l-1,4a17.18,17.18,0,0,0-4,1.26L383.23,194l-3.62,2.53,1.49,3.91a17.59,17.59,0,0,0-2.53,3.28l-4.15-.43-1.51,4.15,3.44,2.33a17.73,17.73,0,0,0-.25,2.93c0,.42,0,.83,0,1.24l-3.62,2,1.14,4.26,4.1-.05a17.37,17.37,0,0,0,2.24,3.58l-1.76,3.67,3.38,2.84,3.27-2.35a17.49,17.49,0,0,0,4,1.67l.65,4,4.4.38,1.32-3.74a17.41,17.41,0,0,0,4.23-.91l2.78,2.81,3.82-2.2-1.05-3.8a17.86,17.86,0,0,0,2.94-3.2l3.88.71,1.86-4-3-2.52A17.33,17.33,0,0,0,411.18,212.8Zm-6.52-.08a11,11,0,1,1-11-11A11,11,0,0,1,404.66,212.72Z" style="fill:#fff"/>
  </g>
  <g id="freepik--Character--inject-34">
    <ellipse cx="265.29" cy="401.12" rx="65.29" ry="10.88" style="fill:#2ECC71"/>
    <ellipse cx="265.29" cy="401.12" rx="65.29" ry="10.88" style="fill:#fff;opacity:0.5"/>
    <path d="M259.65,163a60.76,60.76,0,0,0-5.54,44.21c6.41,25.06,24.2,54.06,24.2,54.06l22.16-7s-1.75-41.67-11.08-61.38S262.86,162.43,259.65,163Z" style="fill:#263238;stroke:#263238;stroke-linecap:round;stroke-linejoin:round"/>
    <path d="M274.81,161.53a64.89,64.89,0,0,0-5.54,45.79c6.42,26,24.21,56,24.21,56L315.64,256s-1.75-43.15-11.08-63.57S278,161,274.81,161.53Z" style="fill:#2ECC71"/>
    <g style="clip-path:url(#freepik--clip-path--inject-34)">
      <path d="M274,173a57.53,57.53,0,0,0-4.91,40.61c5.69,23,21.47,49.66,21.47,49.66l19.66-6.46s-1.55-38.29-9.83-56.39S276.82,172.51,274,173Z" style="opacity:0.29"/>
    </g>
    <path d="M274.81,161.53a64.89,64.89,0,0,0-5.54,45.79c6.42,26,24.21,56,24.21,56L315.64,256s-1.75-43.15-11.08-63.57S278,161,274.81,161.53Z" style="fill:none;stroke:#263238;stroke-linecap:round;stroke-linejoin:round"/>
    <path d="M274.81,161.53a63.17,63.17,0,0,0-7.39,28.05,55.66,55.66,0,0,0,12.62-.9,52.37,52.37,0,0,0,18.4-7C289.11,168.2,277.4,161.06,274.81,161.53Z" style="fill:#263238;stroke:#263238;stroke-linecap:round;stroke-linejoin:round"/>
    <path d="M315.37,251.19l-24.05,8.33c1.34,2.4,2.16,3.78,2.16,3.78L315.64,256S315.56,254.21,315.37,251.19Z" style="fill:#263238;stroke:#263238;stroke-linecap:round;stroke-linejoin:round"/>
    <path d="M219.47,388.33s-8.4,6.11-15.27,8-2.29,5.72,3.05,5.72,14.13-1.91,18.33-1.91,8,1.53,9.55-2.29.38-6.11.38-6.11S224.82,388.71,219.47,388.33Z" style="fill:#fff;stroke:#263238;stroke-linecap:round;stroke-linejoin:round"/>
    <path d="M226.32,397.72c-6.63,0-9.43,2.1-16.24,2.62a13.52,13.52,0,0,1-9.08-2.25c-1.28,1.87,2.28,4,6.25,4,5.35,0,14.13-1.91,18.33-1.91s8,1.53,9.55-2.29a10.88,10.88,0,0,0,.71-2.67A24,24,0,0,1,226.32,397.72Z" style="fill:#fff;stroke:#263238;stroke-linecap:round;stroke-linejoin:round"/>
    <path d="M283.8,390.21s-5.06,8.39-8,10.83-4.89,5.24-1.58,5.42,10.14-1.75,16.43-4.37,12.4-9.43,12.4-10.48-3.14-5.77-3.14-5.77S288.17,387.77,283.8,390.21Z" style="fill:#fff;stroke:#263238;stroke-linecap:round;stroke-linejoin:round"/>
    <path d="M302.37,390a42.47,42.47,0,0,1-14.72,10.37c-7.72,3.31-12.76,4.21-15.09,4.46-.31.92.08,1.58,1.63,1.66,3.32.17,10.14-1.75,16.43-4.37s12.4-9.43,12.4-10.48A4.92,4.92,0,0,0,302.37,390Z" style="fill:#fff;stroke:#263238;stroke-linecap:round;stroke-linejoin:round"/>
    <path d="M237.42,258.89l-4.58,14.89S216,310.05,212.6,319.6s4.58,26.35,5.35,37,.38,25.2.38,25.2a3.89,3.89,0,0,0-1.53,2.67v5l19.85,4.58s.77-9.54,0-14.5-1.52-35.9-1.52-40.48-1.53-13.74-1.53-13.74l14.51-19.09s-4.2,22.52-2.67,26.72,14.89,20.24,18.32,23.29,21,26.73,21,26.73-2.67,2.29-2.67,4.2a33.8,33.8,0,0,0,.76,5.35l17.95-5s-2.29-7.25-6.11-16.8-25.2-43.14-25.2-43.14,17.18-42.77,17.18-52.31.38-16.42.38-16.42S257.27,266.91,237.42,258.89Z" style="fill:#263238;stroke:#263238;stroke-linecap:round;stroke-linejoin:round"/>
    <polyline points="248.11 306.24 252.69 283.71 246.58 275.69" style="fill:none;stroke:#fff;stroke-linecap:round;stroke-linejoin:round"/>
    <path d="M219.25,253.64a1.56,1.56,0,0,1-.83-3l39.69-15a1.56,1.56,0,1,1,1.1,2.92l-39.68,15A1.64,1.64,0,0,1,219.25,253.64Z" style="fill:#263238;stroke:#263238;stroke-linecap:round;stroke-linejoin:round"/>
    <path d="M220.92,234s4.26,1.28,15.69-5.17l3.14,12.35s-8.11,3.5-20.1,1.85Z" style="fill:#fff"/>
    <g style="clip-path:url(#freepik--clip-path-2--inject-34)">
      <path d="M220.92,234s4.26,1.28,15.69-5.17l3.14,12.35s-8.11,3.5-20.1,1.85Z" style="opacity:0.15"/>
    </g>
    <path d="M220.92,234s4.26,1.28,15.69-5.17l3.14,12.35s-8.11,3.5-20.1,1.85Z" style="fill:none;stroke:#263238;stroke-linecap:round;stroke-linejoin:round"/>
    <path d="M220.4,250.92a2.58,2.58,0,0,1-2.48-1.91l-6.11-23a2.57,2.57,0,1,1,5-1.32l6.11,23a2.56,2.56,0,0,1-1.82,3.14A2.5,2.5,0,0,1,220.4,250.92Z" style="fill:#2ECC71;stroke:#263238;stroke-miterlimit:10"/>
    <path d="M222.76,229.27c-2.92-1.26-5.1,7.67-1.36,10.3,2,1.4,3.26-1.26,3.45-3s.13-4.76-.86-6.19A3.11,3.11,0,0,0,222.76,229.27Z" style="fill:#fff;stroke:#263238;stroke-linecap:round;stroke-linejoin:round"/>
    <path d="M221.81,242.59s-4.33-.16-6,1.29-.43,3.18.56,3,5.59-.61,6.5-1.56S223.79,243.84,221.81,242.59Z" style="fill:#fff;stroke:#263238;stroke-linecap:round;stroke-linejoin:round"/>
    <path d="M220.64,238.61s-5-.28-6.93,1.45-.44,3.89.71,3.73,6.49-.64,7.53-1.79S223,240.17,220.64,238.61Z" style="fill:#fff;stroke:#263238;stroke-linecap:round;stroke-linejoin:round"/>
    <path d="M220.18,234.54s-6.1-1.12-8.68.7-1.14,4.67.29,4.66,8,.22,9.45-1S222.77,236.81,220.18,234.54Z" style="fill:#fff;stroke:#263238;stroke-linecap:round;stroke-linejoin:round"/>
    <path d="M219.85,229.69s-6.09-1.12-8.68.7-1.13,4.66.3,4.65,8,.22,9.45-1S222.44,232,219.85,229.69Z" style="fill:#fff;stroke:#263238;stroke-linecap:round;stroke-linejoin:round"/>
    <path d="M235.79,186.1s-7.48,13.74-6.06,25.26,6.06,23,7.27,28.08-2.63,17-1.82,20.6,17.78,5.46,32.33,6.07,21-3.24,21.82-7.28,1.21-3.43.6-10.91-7.27-47.07-11.31-54.75S255.39,178.83,252.15,178,240,178.43,235.79,186.1Z" style="fill:#fff"/>
    <g style="clip-path:url(#freepik--clip-path-3--inject-34)">
      <path d="M272.16,195.63l-7.67,12s-.66,5.67,2.34,10A84.88,84.88,0,0,0,272.5,225l-14.68-7.67s9.68,15,12.34,18,6.67,8,2.67,13.68c-3.87,5.48-21.46,12.53-23.22,15.7,5.51.7,11.91,1.16,17.9,1.41,14.54.6,21-3.24,21.82-7.28s1.21-3.43.6-10.91c-.57-7-6.45-42.16-10.51-52.91C276.39,194.29,273.79,194.32,272.16,195.63Z" style="opacity:0.15"/>
    </g>
    <path d="M235.79,186.1s-7.48,13.74-6.06,25.26,6.06,23,7.27,28.08-2.63,17-1.82,20.6,17.78,5.46,32.33,6.07,21-3.24,21.82-7.28,1.21-3.43.6-10.91-7.27-47.07-11.31-54.75S255.39,178.83,252.15,178,240,178.43,235.79,186.1Z" style="fill:none;stroke:#263238;stroke-linecap:round;stroke-linejoin:round"/>
    <polygon points="251.55 173.78 237 192.16 244.73 203.07 257.56 179.01 251.55 173.78" style="fill:#fff;stroke:#263238;stroke-linecap:round;stroke-linejoin:round"/>
    <polygon points="231.21 190.94 231.05 199.23 237.68 195.25 231.21 190.94" style="fill:#fff;stroke:#263238;stroke-linecap:round;stroke-linejoin:round"/>
    <polygon points="233.54 184.14 231.21 190.94 240.33 199.06 233.54 184.14" style="fill:#fff;stroke:#263238;stroke-linecap:round;stroke-linejoin:round"/>
    <path d="M229.84,174.7s7.4,20.31,9.52,19.67,10.58-15,11-17.77-2.54-9.31-2.54-9.31a56.07,56.07,0,0,0-11.64,4.23C229.62,174.7,229.84,174.7,229.84,174.7Z" style="fill:#fff"/>
    <g style="clip-path:url(#freepik--clip-path-4--inject-34)">
      <path d="M236.18,171.52l-.28.14a6.23,6.23,0,0,1-.76,1.63c-1.92,2.87-3.55,3.77-4.31,4.05.06.16.12.32.19.49L245.68,186c2.36-3.93,4.47-8,4.68-9.37.42-2.75-2.54-9.31-2.54-9.31A56.07,56.07,0,0,0,236.18,171.52Z" style="fill:#2ECC71"/>
      <path d="M236.18,171.52l-.28.14a6.23,6.23,0,0,1-.76,1.63c-1.92,2.87-3.55,3.77-4.31,4.05.06.16.12.32.19.49L245.68,186c2.36-3.93,4.47-8,4.68-9.37.42-2.75-2.54-9.31-2.54-9.31A56.07,56.07,0,0,0,236.18,171.52Z" style="fill:#fff;opacity:0.5"/>
    </g>
    <path d="M229.84,174.7s7.4,20.31,9.52,19.67,10.58-15,11-17.77-2.54-9.31-2.54-9.31a56.07,56.07,0,0,0-11.64,4.23C229.62,174.7,229.84,174.7,229.84,174.7Z" style="fill:none;stroke:#263238;stroke-linecap:round;stroke-linejoin:round"/>
    <path d="M229.73,211.36s4.24,5.86,25.45,5.65l3.84,5.66s-16.77,3.64-28.28-6.06Z" style="fill:#263238;stroke:#263238;stroke-linecap:round;stroke-linejoin:round"/>
    <path d="M262.25,181.86s-6.66,1.21-9.89,14.14,4.44,29.9,16.56,34.55,18.39-3.64,18.39-3.64l-1.82-4.44s-4.24,8.28-14.75,3.84S256.19,211,257,200.24s10.51-15.75,10.51-15.75Z" style="fill:#263238;stroke:#263238;stroke-linecap:round;stroke-linejoin:round"/>
    <path d="M242,262.13a1.71,1.71,0,0,1-.31-3.4l73.75-25.94a1.72,1.72,0,0,1,.64,3.38l-73.76,25.94A1.72,1.72,0,0,1,242,262.13Z" style="fill:#263238;stroke:#263238;stroke-linecap:round;stroke-linejoin:round"/>
    <path d="M244.54,259.18a2.87,2.87,0,0,1-2.77-2.12L235,231.43a2.87,2.87,0,1,1,5.54-1.47l6.82,25.62a2.87,2.87,0,0,1-2,3.51A3.18,3.18,0,0,1,244.54,259.18Z" style="fill:#2ECC71;stroke:#263238;stroke-miterlimit:10"/>
    <path d="M259,245.09s-8.89-6.86-11.51-8.68-8.69.6-10.71.6-4.65,2-4.24,3.44a5.13,5.13,0,0,0,2,2.42s-1.42,2.43-.21,4.25a6.07,6.07,0,0,1,1.22,3,9,9,0,0,0,2.22,3.23c1.21.81,3.84,1.21,7.07,1.21s8.89-2.22,8.89-2.22l5.66-.2Z" style="fill:#fff"/>
    <g style="clip-path:url(#freepik--clip-path-5--inject-34)">
      <path d="M253.77,252.37l5.66-.2-.08-1.39-.86-4.12s-9.67-6-13.68-5.67-6.33.3-6.67,6.34a9.07,9.07,0,0,0,2.59,7,28.22,28.22,0,0,0,4.15.28C248.11,254.59,253.77,252.37,253.77,252.37Z" style="fill:#2ECC71"/>
      <path d="M253.77,252.37l5.66-.2-.08-1.39-.86-4.12s-9.67-6-13.68-5.67-6.33.3-6.67,6.34a9.07,9.07,0,0,0,2.59,7,28.22,28.22,0,0,0,4.15.28C248.11,254.59,253.77,252.37,253.77,252.37Z" style="fill:#fff;opacity:0.5"/>
    </g>
    <path d="M259,245.09s-8.89-6.86-11.51-8.68-8.69.6-10.71.6-4.65,2-4.24,3.44a5.13,5.13,0,0,0,2,2.42s-1.42,2.43-.21,4.25a6.07,6.07,0,0,1,1.22,3,9,9,0,0,0,2.22,3.23c1.21.81,3.84,1.21,7.07,1.21s8.89-2.22,8.89-2.22l5.66-.2Z" style="fill:none;stroke:#263238;stroke-linecap:round;stroke-linejoin:round"/>
    <path d="M264.88,188.33s-7.27,6.66-4.44,15.55S275,221.05,278,225.09a65.31,65.31,0,0,0,7.28,7.88s-9.1,4.45-15.56,7.28a81.06,81.06,0,0,1-11.31,4l.2,7.67s22.22,1,32.52-3,17.78-9.09,17.78-15.15S296,216.41,289.12,205.5s-11.92-16.57-18.78-17.58" style="fill:#fff"/>
    <g style="clip-path:url(#freepik--clip-path-6--inject-34)">
      <path d="M291.14,248.93c10.31-4,17.78-9.09,17.78-15.15S296,216.41,289.12,205.5c-4.93-7.84-8.93-12.95-13.34-15.59,1.92,1.92,7.78,8.05,8.06,11.39.33,4-16.34,2.34-13.34,4.34s16.67,6.67,22.68,12,13.67,10,10.34,14-19,9-30.35,16.34a11,11,0,0,0-4,4C276.31,251.84,285.51,251.14,291.14,248.93Z" style="opacity:0.15"/>
    </g>
    <path d="M264.88,188.33s-7.27,6.66-4.44,15.55S275,221.05,278,225.09a65.31,65.31,0,0,0,7.28,7.88s-9.1,4.45-15.56,7.28a81.06,81.06,0,0,1-11.31,4l.2,7.67s22.22,1,32.52-3,17.78-9.09,17.78-15.15S296,216.41,289.12,205.5s-11.92-16.57-18.78-17.58" style="fill:none;stroke:#263238;stroke-linecap:round;stroke-linejoin:round"/>
    <line x1="262.66" y1="243.07" x2="263.47" y2="251.96" style="fill:none;stroke:#263238;stroke-linecap:round;stroke-linejoin:round"/>
    <path d="M285.29,233s7.27-4.85,11.92-6.06" style="fill:none;stroke:#263238;stroke-linecap:round;stroke-linejoin:round"/>
    <path d="M227.59,142.38a59.72,59.72,0,0,0-2.07,6c-.49,2.06-3.1,5.79-4.63,6.74s-5.1,2.28-3.53,4a17.55,17.55,0,0,0,4.71,3.06s-1.23,7.1-.45,11.19,3.66,4.78,6.27,4.74,12.46-1.21,15.79-5.21,8.69-16.65,6.06-24.87S232.25,134.57,227.59,142.38Z" style="fill:#fff"/>
    <g style="clip-path:url(#freepik--clip-path-7--inject-34)">
      <path d="M233.81,156.61c1.33,5.34,4,12.67,1.33,16.68s-4.79,4.18-4.79,4.18l.66.36c4-.53,10.17-1.94,12.67-4.94,3.33-4,8.69-16.65,6.06-24.87a10.56,10.56,0,0,0-1.84-3.34l-11.09,2.26S232.47,151.27,233.81,156.61Z" style="fill:#2ECC71"/>
      <path d="M233.81,156.61c1.33,5.34,4,12.67,1.33,16.68s-4.79,4.18-4.79,4.18l.66.36c4-.53,10.17-1.94,12.67-4.94,3.33-4,8.69-16.65,6.06-24.87a10.56,10.56,0,0,0-1.84-3.34l-11.09,2.26S232.47,151.27,233.81,156.61Z" style="fill:#fff;opacity:0.5"/>
    </g>
    <path d="M227.59,142.38a59.72,59.72,0,0,0-2.07,6c-.49,2.06-3.1,5.79-4.63,6.74s-5.1,2.28-3.53,4a17.55,17.55,0,0,0,4.71,3.06s-1.23,7.1-.45,11.19,3.66,4.78,6.27,4.74,12.46-1.21,15.79-5.21,8.69-16.65,6.06-24.87S232.25,134.57,227.59,142.38Z" style="fill:none;stroke:#263238;stroke-linecap:round;stroke-linejoin:round"/>
    <path d="M241,171.45s-6,5.16-10.6,6c0,0,8,1.14,16.33-5.73Z" style="fill:#263238;stroke:#263238;stroke-linecap:round;stroke-linejoin:round"/>
    <path d="M228.56,149.35s2.19-3.91,4.59,1.08" style="fill:none;stroke:#263238;stroke-linecap:round;stroke-linejoin:round"/>
    <path d="M224.06,164.81s3.93,1.79,7.07-.51" style="fill:none;stroke:#263238;stroke-linecap:round;stroke-linejoin:round"/>
    <path d="M229.36,153.34c-.23,1-.73,1.68-1.13,1.58s-.54-.95-.31-1.92.73-1.67,1.13-1.58S229.59,152.37,229.36,153.34Z" style="fill:#263238"/>
    <path d="M223.48,145.22s16.33,4.48,16.68,7.61-2.53,9.73-1,16.38,10.59,8.58,18.15,6,13-16.5,12-28S256.6,129,247.44,127.27,224.37,132.17,223.48,145.22Z" style="fill:#2ECC71"/>
    <g style="clip-path:url(#freepik--clip-path-8--inject-34)">
      <path d="M254.49,136.6a25,25,0,0,0-4.64-.37,3.45,3.45,0,0,1,1,2.37,4,4,0,0,1-8,0,3.08,3.08,0,0,1,.09-.75c-4.1,2.06-7,5.86-10,10.45,3.7,1.43,7.11,3.12,7.27,4.53.36,3.13-2.53,9.73-1,16.38s10.59,8.58,18.15,6c7.14-2.43,12.39-15,12.12-26.11C268.1,146.09,263.89,138.21,254.49,136.6Z" style="opacity:0.29"/>
    </g>
    <path d="M223.48,145.22s16.33,4.48,16.68,7.61-2.53,9.73-1,16.38,10.59,8.58,18.15,6,13-16.5,12-28S256.6,129,247.44,127.27,224.37,132.17,223.48,145.22Z" style="fill:none;stroke:#263238;stroke-linecap:round;stroke-linejoin:round"/>
    <path d="M243.72,169.68c-4-6.39,1.19-16-1.2-18.76-2-2.27-14.2-6.65-18.7-8.21a20,20,0,0,0-.34,2.51s16.33,4.48,16.68,7.61-2.53,9.73-1,16.38,10.59,8.58,18.15,6l.1,0C252.05,175.47,246.34,173.87,243.72,169.68Z" style="fill:#263238;stroke:#263238;stroke-linecap:round;stroke-linejoin:round"/>
  </g>
  <g id="g-1" transform="matrix(1, 0, 0, 1, 479.235809, -112.252235)">
    <path d="M -46.705 487.793 L -39.578 484.462 L -41.282 474.558 L -49.155 473.933 C -50.12 471.433 -51.161 469.412 -52.651 467.147 L -48.588 460.127 L -55.543 452.998 L -62.46 457.169 C -66.322 454.579 -70.258 452.932 -74.81 452.002 L -76.81 443.919 L -86.669 443.919 L -88.669 452.062 C -91.16 452.581 -93.194 453.243 -95.559 454.3 L -101.78 448.783 L -109.849 454.574 L -106.907 462.454 C -108.661 464.347 -109.97 466.094 -111.327 468.345 L -119.512 467.512 L -122.872 476.923 L -116.098 481.636 C -116.369 483.435 -116.51 485.103 -116.515 487.094 C -116.515 487.915 -116.514 488.424 -116.465 489.109 L -123.578 493.184 L -121.038 502.905 L -112.968 502.798 C -111.834 505.177 -110.666 507.079 -109.04 509.197 L -112.52 516.624 L -104.993 523.105 L -98.487 518.363 C -96.197 519.658 -94.152 520.534 -91.602 521.31 L -90.307 529.299 L -80.491 530.186 L -77.882 522.619 C -75.244 522.339 -73.048 521.852 -70.493 520.98 L -65.016 526.686 L -56.5 521.643 L -58.565 513.959 C -56.558 512.155 -55.024 510.441 -53.42 508.213 L -45.767 509.663 L -41.618 500.54 L -47.668 495.498 C -47.05 492.852 -46.762 490.551 -46.705 487.793 Z M -61.026 487.121 C -60.958 495.343 -65.239 501.815 -71.326 505.419 C -77.409 509.019 -84.996 509.586 -91.897 505.419 C -98.872 501.37 -102.198 494.332 -102.198 487.121 C -102.198 479.908 -98.872 472.87 -91.897 468.823 C -88.743 466.938 -85.26 465.982 -81.611 465.996 C -75.869 465.956 -70.831 468.308 -67.059 472.174 C -63.286 476.041 -60.988 481.224 -61.026 487.121 Z" style="fill: rgb(255, 255, 255);" transform="matrix(0.71934, -0.694658, 0.694658, 0.71934, -361.230679, 80.027332)"/>
  </g>
</svg>